<mxfile host="app.diagrams.net" agent="Mozilla/5.0 (X11; Ubuntu; Linux x86_64; rv:130.0) Gecko/20100101 Firefox/130.0" version="24.7.13">
  <diagram name="Page-1" id="oFzx5GKKmwyWG8xhSMEZ">
    <mxGraphModel dx="1434" dy="736" grid="1" gridSize="10" guides="1" tooltips="1" connect="1" arrows="1" fold="1" page="1" pageScale="1" pageWidth="850" pageHeight="1100" math="0" shadow="0">
      <root>
        <mxCell id="0" />
        <mxCell id="1" parent="0" />
        <mxCell id="6DLf0M4u58F8rXp5rgFk-15" value="&lt;p style=&quot;margin:0px;margin-top:6px;text-align:center;&quot;&gt;&lt;b&gt;Component&lt;/b&gt;&lt;/p&gt;&lt;hr size=&quot;1&quot; style=&quot;border-style:solid;&quot;&gt;&lt;p style=&quot;margin:0px;margin-left:8px;&quot;&gt;TimeEntry&lt;br&gt;&lt;/p&gt;" style="align=left;overflow=fill;html=1;dropTarget=0;whiteSpace=wrap;" vertex="1" parent="1">
          <mxGeometry x="60" y="200" width="180" height="90" as="geometry" />
        </mxCell>
        <mxCell id="6DLf0M4u58F8rXp5rgFk-16" value="" style="shape=component;jettyWidth=8;jettyHeight=4;" vertex="1" parent="6DLf0M4u58F8rXp5rgFk-15">
          <mxGeometry x="1" width="20" height="20" relative="1" as="geometry">
            <mxPoint x="-24" y="4" as="offset" />
          </mxGeometry>
        </mxCell>
        <mxCell id="6DLf0M4u58F8rXp5rgFk-22" value="DB server" style="html=1;dropTarget=0;whiteSpace=wrap;" vertex="1" parent="1">
          <mxGeometry x="630" y="40" width="180" height="90" as="geometry" />
        </mxCell>
        <mxCell id="6DLf0M4u58F8rXp5rgFk-23" value="" style="shape=module;jettyWidth=8;jettyHeight=4;" vertex="1" parent="6DLf0M4u58F8rXp5rgFk-22">
          <mxGeometry x="1" width="20" height="20" relative="1" as="geometry">
            <mxPoint x="-27" y="7" as="offset" />
          </mxGeometry>
        </mxCell>
        <mxCell id="6DLf0M4u58F8rXp5rgFk-20" value="App server" style="html=1;dropTarget=0;whiteSpace=wrap;" vertex="1" parent="1">
          <mxGeometry x="335" y="40" width="180" height="90" as="geometry" />
        </mxCell>
        <mxCell id="6DLf0M4u58F8rXp5rgFk-21" value="" style="shape=module;jettyWidth=8;jettyHeight=4;" vertex="1" parent="6DLf0M4u58F8rXp5rgFk-20">
          <mxGeometry x="1" width="20" height="20" relative="1" as="geometry">
            <mxPoint x="-27" y="7" as="offset" />
          </mxGeometry>
        </mxCell>
        <mxCell id="6DLf0M4u58F8rXp5rgFk-25" value="Actor" style="shape=umlActor;verticalLabelPosition=bottom;verticalAlign=top;html=1;" vertex="1" parent="1">
          <mxGeometry x="40" y="30" width="30" height="60" as="geometry" />
        </mxCell>
        <mxCell id="6DLf0M4u58F8rXp5rgFk-28" style="edgeStyle=orthogonalEdgeStyle;rounded=0;orthogonalLoop=1;jettySize=auto;html=1;entryX=0.156;entryY=0.033;entryDx=0;entryDy=0;entryPerimeter=0;" edge="1" parent="1" target="6DLf0M4u58F8rXp5rgFk-15">
          <mxGeometry relative="1" as="geometry">
            <mxPoint x="50" y="120" as="sourcePoint" />
          </mxGeometry>
        </mxCell>
        <mxCell id="6DLf0M4u58F8rXp5rgFk-29" value="" style="rounded=0;orthogonalLoop=1;jettySize=auto;html=1;endArrow=halfCircle;endFill=0;endSize=6;strokeWidth=1;sketch=0;fontSize=12;curved=1;exitX=0.5;exitY=0;exitDx=0;exitDy=0;entryX=0;entryY=0.578;entryDx=0;entryDy=0;entryPerimeter=0;" edge="1" target="6DLf0M4u58F8rXp5rgFk-20" parent="1" source="6DLf0M4u58F8rXp5rgFk-15">
          <mxGeometry relative="1" as="geometry">
            <mxPoint x="170" y="190" as="sourcePoint" />
            <mxPoint x="330" y="90" as="targetPoint" />
            <Array as="points">
              <mxPoint x="260" y="110" />
            </Array>
          </mxGeometry>
        </mxCell>
        <mxCell id="6DLf0M4u58F8rXp5rgFk-30" value="" style="ellipse;whiteSpace=wrap;html=1;align=center;aspect=fixed;fillColor=none;strokeColor=none;resizable=0;perimeter=centerPerimeter;rotatable=0;allowArrows=0;points=[];outlineConnect=1;" vertex="1" parent="1">
          <mxGeometry x="410" y="380" width="10" height="10" as="geometry" />
        </mxCell>
        <mxCell id="6DLf0M4u58F8rXp5rgFk-33" value="" style="rounded=0;orthogonalLoop=1;jettySize=auto;html=1;endArrow=halfCircle;endFill=0;endSize=6;strokeWidth=1;sketch=0;fontSize=12;curved=1;exitX=0;exitY=0.75;exitDx=0;exitDy=0;" edge="1" parent="1" source="6DLf0M4u58F8rXp5rgFk-22">
          <mxGeometry relative="1" as="geometry">
            <mxPoint x="435" y="385" as="sourcePoint" />
            <mxPoint x="520" y="70" as="targetPoint" />
            <Array as="points">
              <mxPoint x="560" y="70" />
            </Array>
          </mxGeometry>
        </mxCell>
        <mxCell id="6DLf0M4u58F8rXp5rgFk-34" value="" style="ellipse;whiteSpace=wrap;html=1;align=center;aspect=fixed;fillColor=none;strokeColor=none;resizable=0;perimeter=centerPerimeter;rotatable=0;allowArrows=0;points=[];outlineConnect=1;" vertex="1" parent="1">
          <mxGeometry x="410" y="380" width="10" height="10" as="geometry" />
        </mxCell>
        <mxCell id="6DLf0M4u58F8rXp5rgFk-35" value="Authenticaton" style="html=1;dropTarget=0;whiteSpace=wrap;" vertex="1" parent="1">
          <mxGeometry x="100" y="410" width="180" height="90" as="geometry" />
        </mxCell>
        <mxCell id="6DLf0M4u58F8rXp5rgFk-36" value="" style="shape=module;jettyWidth=8;jettyHeight=4;" vertex="1" parent="6DLf0M4u58F8rXp5rgFk-35">
          <mxGeometry x="1" width="20" height="20" relative="1" as="geometry">
            <mxPoint x="-27" y="7" as="offset" />
          </mxGeometry>
        </mxCell>
        <mxCell id="6DLf0M4u58F8rXp5rgFk-37" value="Notification" style="html=1;dropTarget=0;whiteSpace=wrap;" vertex="1" parent="1">
          <mxGeometry x="370" y="410" width="180" height="90" as="geometry" />
        </mxCell>
        <mxCell id="6DLf0M4u58F8rXp5rgFk-38" value="" style="shape=module;jettyWidth=8;jettyHeight=4;" vertex="1" parent="6DLf0M4u58F8rXp5rgFk-37">
          <mxGeometry x="1" width="20" height="20" relative="1" as="geometry">
            <mxPoint x="-27" y="7" as="offset" />
          </mxGeometry>
        </mxCell>
        <mxCell id="6DLf0M4u58F8rXp5rgFk-39" value="API gateway" style="html=1;dropTarget=0;whiteSpace=wrap;" vertex="1" parent="1">
          <mxGeometry x="630" y="200" width="180" height="90" as="geometry" />
        </mxCell>
        <mxCell id="6DLf0M4u58F8rXp5rgFk-40" value="" style="shape=module;jettyWidth=8;jettyHeight=4;" vertex="1" parent="6DLf0M4u58F8rXp5rgFk-39">
          <mxGeometry x="1" width="20" height="20" relative="1" as="geometry">
            <mxPoint x="-27" y="7" as="offset" />
          </mxGeometry>
        </mxCell>
        <mxCell id="6DLf0M4u58F8rXp5rgFk-41" value="&lt;div&gt;External systems&lt;/div&gt;&lt;div&gt;Payroll&lt;/div&gt;&lt;div&gt;Project tools&lt;br&gt;&lt;/div&gt;" style="html=1;dropTarget=0;whiteSpace=wrap;" vertex="1" parent="1">
          <mxGeometry x="630" y="400" width="180" height="90" as="geometry" />
        </mxCell>
        <mxCell id="6DLf0M4u58F8rXp5rgFk-42" value="" style="shape=module;jettyWidth=8;jettyHeight=4;" vertex="1" parent="6DLf0M4u58F8rXp5rgFk-41">
          <mxGeometry x="1" width="20" height="20" relative="1" as="geometry">
            <mxPoint x="-27" y="7" as="offset" />
          </mxGeometry>
        </mxCell>
        <mxCell id="6DLf0M4u58F8rXp5rgFk-43" value="" style="endArrow=open;endFill=1;endSize=12;html=1;rounded=0;exitX=0.5;exitY=0;exitDx=0;exitDy=0;" edge="1" parent="1" source="6DLf0M4u58F8rXp5rgFk-35" target="6DLf0M4u58F8rXp5rgFk-20">
          <mxGeometry width="160" relative="1" as="geometry">
            <mxPoint x="340" y="380" as="sourcePoint" />
            <mxPoint x="500" y="380" as="targetPoint" />
          </mxGeometry>
        </mxCell>
        <mxCell id="6DLf0M4u58F8rXp5rgFk-44" value="" style="endArrow=open;endFill=1;endSize=12;html=1;rounded=0;entryX=-0.011;entryY=0.578;entryDx=0;entryDy=0;entryPerimeter=0;" edge="1" parent="1" target="6DLf0M4u58F8rXp5rgFk-37">
          <mxGeometry width="160" relative="1" as="geometry">
            <mxPoint x="280" y="455" as="sourcePoint" />
            <mxPoint x="425" y="454.5" as="targetPoint" />
          </mxGeometry>
        </mxCell>
        <mxCell id="6DLf0M4u58F8rXp5rgFk-45" value="" style="rounded=0;orthogonalLoop=1;jettySize=auto;html=1;endArrow=halfCircle;endFill=0;endSize=6;strokeWidth=1;sketch=0;fontSize=12;curved=1;exitX=0.461;exitY=0.011;exitDx=0;exitDy=0;exitPerimeter=0;" edge="1" target="6DLf0M4u58F8rXp5rgFk-22" parent="1" source="6DLf0M4u58F8rXp5rgFk-39">
          <mxGeometry relative="1" as="geometry">
            <mxPoint x="435" y="385" as="sourcePoint" />
            <Array as="points">
              <mxPoint x="710" y="130" />
            </Array>
          </mxGeometry>
        </mxCell>
        <mxCell id="6DLf0M4u58F8rXp5rgFk-46" value="" style="ellipse;whiteSpace=wrap;html=1;align=center;aspect=fixed;fillColor=none;strokeColor=none;resizable=0;perimeter=centerPerimeter;rotatable=0;allowArrows=0;points=[];outlineConnect=1;" vertex="1" parent="1">
          <mxGeometry x="410" y="380" width="10" height="10" as="geometry" />
        </mxCell>
        <mxCell id="6DLf0M4u58F8rXp5rgFk-47" value="" style="endArrow=block;startArrow=block;endFill=1;startFill=1;html=1;rounded=0;entryX=0;entryY=0.5;entryDx=0;entryDy=0;" edge="1" parent="1" target="6DLf0M4u58F8rXp5rgFk-41">
          <mxGeometry width="160" relative="1" as="geometry">
            <mxPoint x="550" y="444.5" as="sourcePoint" />
            <mxPoint x="710" y="444.5" as="targetPoint" />
          </mxGeometry>
        </mxCell>
        <mxCell id="6DLf0M4u58F8rXp5rgFk-48" value="" style="endArrow=open;endFill=1;endSize=12;html=1;rounded=0;entryX=0.6;entryY=0.978;entryDx=0;entryDy=0;entryPerimeter=0;exitX=0.572;exitY=-0.044;exitDx=0;exitDy=0;exitPerimeter=0;" edge="1" parent="1" source="6DLf0M4u58F8rXp5rgFk-41" target="6DLf0M4u58F8rXp5rgFk-39">
          <mxGeometry width="160" relative="1" as="geometry">
            <mxPoint x="340" y="380" as="sourcePoint" />
            <mxPoint x="500" y="380" as="targetPoint" />
          </mxGeometry>
        </mxCell>
        <mxCell id="6DLf0M4u58F8rXp5rgFk-49" value="Https" style="text;html=1;align=center;verticalAlign=middle;resizable=0;points=[];autosize=1;strokeColor=none;fillColor=none;" vertex="1" parent="1">
          <mxGeometry x="535" y="48" width="50" height="30" as="geometry" />
        </mxCell>
        <mxCell id="6DLf0M4u58F8rXp5rgFk-50" value="HTTPS" style="text;html=1;align=center;verticalAlign=middle;resizable=0;points=[];autosize=1;strokeColor=none;fillColor=none;" vertex="1" parent="1">
          <mxGeometry x="730" y="340" width="60" height="30" as="geometry" />
        </mxCell>
      </root>
    </mxGraphModel>
  </diagram>
</mxfile>
